<?xml version="1.0" encoding="utf-8" ?><svg xmlns="http://www.w3.org/2000/svg" xmlns:xlink="http://www.w3.org/1999/xlink" width="1024" height="1024" viewBox="0 0 1024 1024"><path d="M503.632 303.751C506.017 304.609 529.352 304.598 533.899 304.592L589.934 304.484C602.971 304.52 617.383 304.864 630.323 304.435C658.474 352.892 688.394 400.447 716.709 448.828C729.256 470.269 742.851 491.374 754.977 512.976C753.713 516.619 744.712 530.997 742.223 535.126L713.542 582.641L658.748 673.766C649.314 689.437 639.984 706.144 629.762 721.278C619.243 721.541 607.051 721.111 596.284 721.108L519.375 721.13L440.096 721.099C426.034 721.102 407.721 720.769 393.935 721.447C390.71 716.7 387.13 710.266 384.073 705.227L360.278 665.605L268.934 513.729C270.146 509.402 279.923 494.2 282.749 489.573L301.732 458.114L393.377 305.178C399.343 303.941 423.586 304.538 431.255 304.557C446.728 304.595 462.991 304.402 478.569 304.184C483.754 304.112 499.53 304.815 503.632 303.751Z"/><path fill="#FEFEFE" d="M398.952 312.661C405.298 314.871 414.575 318.85 420.961 321.432C472.518 342.284 505.588 358.505 562.173 337.695C582.009 330.4 605.747 319.565 625.243 312.923C634.281 347.758 635.435 393.597 652.903 425.016C671.618 458.678 716.026 489.59 745.888 513.568C717.847 534.749 677.484 564.436 657.974 592.987C637.073 623.574 633.12 677.148 625.503 713.364L583.457 696.531C545.636 681.507 515.104 671.937 473.935 684.507C449.056 692.104 423.059 703.589 398.642 713.083C386.805 664.112 389.267 613.678 351.806 575.049C328.854 551.381 302.594 534.555 278.298 513.267C282.018 509.881 289.422 504.41 293.651 501.077C304.005 493.005 314.22 484.757 324.292 476.336C373.363 434.906 379.188 417.717 390.714 356.294L398.952 312.661Z"/><path d="M520.268 401.226C550.622 400.072 584.458 410.745 604.351 434.68C595.769 443.765 584.97 453.911 575.962 462.829C573.608 460.402 571.127 457.941 568.53 455.826C543.908 435.765 503.978 434.949 480.494 457.506C465.252 472.147 460.695 487.471 459.714 507.969C457.873 546.403 482.494 580.445 522.793 580.76C546.141 581.025 560.525 573.689 577.301 557.588L579.556 559.813C587.147 567.727 597.822 577.357 604.599 585.214C568.161 630.121 490.104 632.265 449.023 593.137C426.866 572.034 416.074 547.265 414.856 516.66C413.645 486.242 422.278 457.665 443.068 434.988C463.9 412.495 490.147 402.484 520.268 401.226Z"/></svg>